<?xml version="1.0" encoding="UTF-8"?>
<svg version="1.1" xmlns="http://www.w3.org/2000/svg" width="852" height="343">
<path d="M0 0 C281.16 0 562.32 0 852 0 C852 113.19 852 226.38 852 343 C570.84 343 289.68 343 0 343 C0 229.81 0 116.62 0 0 Z " fill="#FDFDFD" transform="translate(0,0)"/>
<path d="M0 0 C1.02673828 0.02255859 2.05347656 0.04511719 3.11132812 0.06835938 C5.63734666 0.12710399 8.16261224 0.21677974 10.6875 0.3125 C10.6875 4.2725 10.6875 8.2325 10.6875 12.3125 C15.6375 12.8075 15.6375 12.8075 20.6875 13.3125 C20.6875 9.0225 20.6875 4.7325 20.6875 0.3125 C24.08418836 0.2043826 27.47742439 0.12512812 30.875 0.0625 C31.83470703 0.02898437 32.79441406 -0.00453125 33.78320312 -0.0390625 C34.71455078 -0.05195312 35.64589844 -0.06484375 36.60546875 -0.078125 C37.45906982 -0.09907227 38.3126709 -0.12001953 39.19213867 -0.14160156 C42.7175908 0.49995415 44.20450356 1.73261736 46.6875 4.3125 C47.90016909 6.95565657 48.84160227 9.37479416 49.7109375 12.125 C50.10519424 13.30192413 50.10519424 13.30192413 50.50741577 14.50262451 C51.37424035 17.10116655 52.21805797 19.70660743 53.0625 22.3125 C53.67046189 24.14673604 54.28019505 25.98038584 54.89160156 27.81347656 C56.17710886 31.6722476 57.45484718 35.53346858 58.72753906 39.39648438 C61.58183464 48.03872628 64.53240616 56.64806905 67.47888184 65.25921631 C68.43989075 68.06949127 69.39856758 70.88055089 70.35644531 73.69189453 C73.82239061 83.86385152 77.30356349 94.03028104 80.8125 104.1875 C84.5249603 114.9345115 88.22659687 125.68517605 91.91351318 136.440979 C92.51016797 138.18087444 93.10737172 139.92058173 93.70513916 141.66009521 C94.53666161 144.08018916 95.36623914 146.50094114 96.1953125 148.921875 C96.44788818 149.65574432 96.70046387 150.38961365 96.96069336 151.14572144 C98.6875 156.19830589 98.6875 156.19830589 98.6875 157.3125 C74.9275 157.3125 51.1675 157.3125 26.6875 157.3125 C24.38682432 119.35135135 24.38682432 119.35135135 24.0625 107.75 C24.02382812 106.51572266 23.98515625 105.28144531 23.9453125 104.00976562 C23.85507257 101.11080782 23.77052079 98.21167353 23.6875 95.3125 C18.0775 95.3125 12.4675 95.3125 6.6875 95.3125 C6.63215088 96.83536621 6.57680176 98.35823242 6.51977539 99.92724609 C6.31233816 105.6116107 6.10074604 111.29581455 5.88793945 116.97998047 C5.79664747 119.433715 5.70646164 121.88749095 5.61743164 124.34130859 C5.48879609 127.88130141 5.35609934 131.42112303 5.22265625 134.9609375 C5.18406998 136.04676117 5.1454837 137.13258484 5.10572815 138.25131226 C5.06576218 139.29163605 5.0257962 140.33195984 4.98461914 141.40380859 C4.93465538 142.75616104 4.93465538 142.75616104 4.88368225 144.13583374 C4.61183309 148.53773065 4.12633959 152.92410414 3.6875 157.3125 C-20.0725 157.3125 -43.8325 157.3125 -68.3125 157.3125 C-55.97841278 120.15606226 -43.46424304 83.06183738 -30.48754883 46.12426758 C-27.78978068 38.44180169 -25.10798849 30.75789204 -22.55078125 23.02734375 C-22.14400146 21.80958252 -21.73722168 20.59182129 -21.31811523 19.3371582 C-20.59541219 17.16405523 -19.8841329 14.98709793 -19.18774414 12.80541992 C-15.49713223 1.76407723 -11.41625736 -0.47476438 0 0 Z " fill="#0E396B" transform="translate(133.3125,113.6875)"/>
<path d="M0 0 C0.82062424 0.00007553 1.64124847 0.00015106 2.48674011 0.00022888 C3.80875175 0.00797081 3.80875175 0.00797081 5.1574707 0.01586914 C6.5161602 0.01799156 6.5161602 0.01799156 7.90229797 0.02015686 C10.79598286 0.02575538 13.68959044 0.03830758 16.58325195 0.05102539 C18.54483938 0.05604058 20.50642801 0.06060346 22.46801758 0.06469727 C27.27729217 0.07572432 32.08650895 0.09298792 36.89575195 0.11352539 C36.89575195 5.72352539 36.89575195 11.33352539 36.89575195 17.11352539 C34.64375977 17.1509082 32.39176758 17.18829102 30.0715332 17.22680664 C27.88043741 17.2730736 25.68950897 17.32428818 23.49853516 17.37597656 C21.98073574 17.40914455 20.46281539 17.43720171 18.94482422 17.45996094 C16.75737176 17.49365817 14.57101931 17.54597743 12.3840332 17.60180664 C11.06959229 17.62799072 9.75515137 17.6541748 8.40087891 17.68115234 C4.74199452 18.13249206 2.80764979 18.8987995 -0.10424805 21.11352539 C-1.71604703 24.33712336 -1.24843747 27.85843034 -1.24468994 31.39996338 C-1.24766106 32.26723549 -1.25063219 33.13450759 -1.25369334 34.02806067 C-1.26240602 36.9514153 -1.26389076 39.8747291 -1.26538086 42.7980957 C-1.27000725 44.88715198 -1.27503167 46.97620741 -1.28042603 49.06526184 C-1.2935701 54.75338108 -1.299999 60.4414885 -1.30443668 66.12962055 C-1.30736445 69.68122073 -1.31146871 73.23281765 -1.31594086 76.7844162 C-1.32962167 87.89028988 -1.33928521 98.99615615 -1.34314275 110.10203767 C-1.34762374 122.93347912 -1.36517115 135.76481406 -1.39414334 148.59622312 C-1.41574448 158.50625619 -1.42584621 168.41625927 -1.42718387 178.32631564 C-1.42823311 184.24876669 -1.43416613 190.17111769 -1.45200348 196.09354401 C-1.46845678 201.66506885 -1.47065294 207.23641816 -1.46186447 212.8079586 C-1.4610926 214.85339261 -1.46545647 216.89883594 -1.47532272 218.94424629 C-1.48799998 221.73609187 -1.4821883 224.52731183 -1.47174072 227.31915283 C-1.47979713 228.12908353 -1.48785353 228.93901423 -1.49615407 229.77348828 C-1.45407473 234.57968958 -0.95301564 238.05602116 1.89575195 242.11352539 C6.52546696 245.33967975 10.91635938 245.54148797 16.39073181 245.49447632 C17.23213119 245.49915629 18.07353056 245.50383626 18.94042689 245.50865805 C21.75243836 245.52059898 24.56396169 245.51115431 27.37597656 245.50170898 C29.39503768 245.50577511 31.41409657 245.51111723 33.43315125 245.51763916 C38.91248556 245.53131446 44.39165038 245.52601293 49.87098765 245.5165019 C55.60658776 245.50890542 61.34217337 245.51595099 67.07777405 245.5206604 C76.71073002 245.52611841 86.343617 245.51892556 95.9765625 245.50463867 C107.11013444 245.48831674 118.24354153 245.49359722 129.37710947 245.51011789 C138.93820923 245.52373694 148.4992594 245.52565021 158.06036574 245.51780188 C163.76982898 245.51312709 169.47921477 245.51249514 175.18867302 245.52241135 C180.55754743 245.5310846 185.9262096 245.52505235 191.29506111 245.50772858 C193.26427992 245.50376548 195.23351661 245.50489474 197.20272827 245.51151657 C199.89332192 245.5197292 202.58323784 245.50941381 205.27378845 245.49447632 C206.43936756 245.50451457 206.43936756 245.50451457 207.62849373 245.51475561 C212.75876322 245.45961076 216.32591604 244.48473423 220.89575195 242.11352539 C225.55458357 237.29939939 225.0578281 231.5700428 225.10107422 225.21411133 C225.11097382 224.31619873 225.12087341 223.41828613 225.131073 222.49316406 C225.16263606 219.52810291 225.18742494 216.56302573 225.2121582 213.59790039 C225.23273221 211.54095038 225.2537288 209.48400455 225.27513123 207.42706299 C225.33030573 202.01513053 225.37973542 196.6031602 225.42797852 191.19116211 C225.47822725 185.66785312 225.53389572 180.14459907 225.58911133 174.62133789 C225.69663641 163.78544559 225.79759309 152.94950659 225.89575195 142.11352539 C231.50575195 142.11352539 237.11575195 142.11352539 242.89575195 142.11352539 C242.98862882 154.58798331 243.05960679 167.06235831 243.10300064 179.53709221 C243.12383258 185.33027273 243.15207011 191.12321585 243.19750977 196.91625977 C243.24112392 202.51189619 243.26492208 208.10730494 243.27526093 213.7030983 C243.28262436 215.83284206 243.29700323 217.96257405 243.31867218 220.09222031 C243.34791289 223.0864076 243.35169931 226.07966642 243.34985352 229.07397461 C243.36423462 229.94504349 243.37861572 230.81611237 243.39343262 231.71357727 C243.33687193 240.25035704 240.42525555 248.53789949 234.89575195 255.11352539 C223.12006491 264.95480799 210.31985121 264.55435091 195.74951172 264.51757812 C193.70679349 264.52328665 191.66407846 264.53025277 189.62136841 264.53837585 C184.09449247 264.55626843 178.56777565 264.55514626 173.04087949 264.54943347 C168.41869247 264.54633615 163.79653576 264.55244007 159.17435306 264.55847222 C148.26660018 264.57250286 137.35892565 264.57096813 126.45117188 264.55957031 C115.2153156 264.54808878 103.97969801 264.56216882 92.74387318 264.58896679 C83.07986829 264.61114901 73.4159382 264.61775552 63.75190967 264.61189038 C57.98757422 264.60852587 52.22339177 264.6109024 46.45907784 264.6281414 C41.03756451 264.64364874 35.61640391 264.63961281 30.19490433 264.62083626 C28.21123381 264.61716097 26.22753693 264.62022773 24.24389076 264.63072205 C11.35965005 264.69365422 0.08740692 264.31515524 -10.38549805 255.81665039 C-16.62348009 249.63537728 -19.30822531 242.1585688 -19.38572115 233.49204558 C-19.38330606 232.64019834 -19.38089098 231.7883511 -19.37840271 230.91069031 C-19.38625773 229.5343267 -19.38625773 229.5343267 -19.39427143 228.13015777 C-19.40925426 225.06036036 -19.40997621 221.99072988 -19.41064453 218.92089844 C-19.41826713 216.71789265 -19.4266948 214.51488953 -19.43586731 212.31188965 C-19.45780837 206.33042131 -19.46661063 200.3490041 -19.47169375 194.36750007 C-19.47533757 190.62957958 -19.48157775 186.89167248 -19.48869514 183.1537571 C-19.51192373 170.78385 -19.525903 158.41397273 -19.52923118 146.04404499 C-19.52941399 145.37772792 -19.52959681 144.71141084 -19.52978516 144.02490234 C-19.52996571 143.35776782 -19.53014625 142.6906333 -19.53033227 142.00328258 C-19.53387362 131.19438917 -19.56089664 120.38569502 -19.59828304 109.5768707 C-19.63640024 98.46748072 -19.65528867 87.35817339 -19.65603119 76.24871475 C-19.65682411 70.01596654 -19.6655701 63.78347554 -19.69402885 57.55078697 C-19.72020152 51.68773136 -19.72241874 45.82514638 -19.70637321 39.96205902 C-19.70455816 37.81305986 -19.71125445 35.66403368 -19.72719193 33.51509285 C-19.74766169 30.57527725 -19.73709491 27.63710698 -19.71897888 24.6973114 C-19.73217885 23.85215633 -19.74537882 23.00700125 -19.75897878 22.13623542 C-19.67089879 15.85429623 -17.85323737 11.17333792 -14.10424805 6.11352539 C-9.89530904 2.23529237 -5.76481278 -0.01773789 0 0 Z " fill="#1A65AC" transform="translate(38.104248046875,40.886474609375)"/>
<path d="M0 0 C0.99687208 -0.00538554 1.99374416 -0.01077108 3.02082449 -0.01631981 C6.34706371 -0.03057895 9.67290382 -0.02350057 12.99916077 -0.01637268 C15.38965168 -0.02207728 17.78013988 -0.02904189 20.17062378 -0.03717041 C25.98123673 -0.05324509 31.79172542 -0.05520457 37.60235589 -0.04995751 C42.32702284 -0.04590925 47.05165789 -0.04736713 51.77632332 -0.05270576 C52.78658189 -0.0538284 52.78658189 -0.0538284 53.81724973 -0.05497371 C55.18565389 -0.05650525 56.55405803 -0.0580436 57.92246217 -0.05958868 C70.74262879 -0.07330303 83.56273432 -0.06788344 96.38289953 -0.05640347 C108.10018406 -0.04647131 119.81731068 -0.05941328 131.53457087 -0.08333766 C143.57968619 -0.10774529 155.62472802 -0.1173325 167.66986758 -0.11068493 C174.42678805 -0.10719651 181.1835871 -0.1093998 187.94048882 -0.12693596 C194.29435306 -0.14240415 200.64791578 -0.13845048 207.00176811 -0.11963081 C209.33136436 -0.11594471 211.66098295 -0.11905395 213.99055862 -0.1295166 C217.17528643 -0.14272611 220.35901596 -0.13117838 223.54370117 -0.11352539 C224.46142003 -0.1231304 225.37913888 -0.1327354 226.32466739 -0.14263147 C235.4598193 -0.03873593 242.44241522 3.28844059 249.10877991 9.45018005 C254.75567006 15.78696177 255.98575573 22.77031058 256.01234436 31.01487732 C256.01891556 31.89658096 256.02548676 32.77828461 256.03225708 33.68670654 C256.05199015 36.60916734 256.06365528 39.53157665 256.07362366 42.4540863 C256.07769918 43.45384932 256.08177471 44.45361233 256.08597374 45.48367119 C256.10683864 50.7795529 256.12113622 56.0754087 256.13050842 61.37132263 C256.14154875 66.8263573 256.1759201 72.28098136 256.21568012 77.73587132 C256.24190625 81.94224779 256.25020579 86.14852753 256.2537899 90.35497856 C256.2586436 92.36469724 256.27022266 94.37441195 256.2888279 96.38405037 C256.4736939 117.68333793 256.4736939 117.68333793 250.04627991 126.97361755 C243.36989307 133.47954345 235.05630499 137.49859567 225.6072979 137.52190113 C224.34535459 137.5285879 224.34535459 137.5285879 223.05791748 137.53540975 C222.1386715 137.53522539 221.21942552 137.53504102 220.27232361 137.53485107 C218.80157637 137.54036611 218.80157637 137.54036611 217.30111706 137.54599255 C214.0063679 137.55703031 210.71165027 137.56087341 207.41688538 137.56468201 C205.05816548 137.5709466 202.69944658 137.5775934 200.34072876 137.58459473 C193.2558972 137.60382134 186.1710692 137.61442299 179.08621806 137.62332252 C175.74726279 137.62770886 172.40830903 137.63307479 169.06935501 137.63831139 C157.96538815 137.65532197 146.86142227 137.66981511 135.75744438 137.67706013 C132.87716038 137.67896992 129.99687638 137.68089027 127.11659241 137.68284607 C126.40073936 137.68332981 125.68488631 137.68381355 124.94734074 137.68431195 C113.35658602 137.69260844 101.76593463 137.71793963 90.175225 137.75042675 C78.26697734 137.7835309 66.35878212 137.80151193 54.45048821 137.80470437 C47.76780102 137.80686641 41.08524426 137.81601551 34.40259933 137.84116554 C28.11365112 137.86445135 21.82497374 137.8686772 15.53599358 137.85840416 C13.23099937 137.85790882 10.9259918 137.86422874 8.62103844 137.87796021 C5.46712364 137.89569407 2.31417924 137.88856492 -0.83973694 137.87542725 C-1.74559858 137.88639649 -2.65146023 137.89736574 -3.58477223 137.90866739 C-11.47405514 137.82966894 -17.90520842 135.54014649 -24.47715759 131.20018005 C-28.58104147 126.90541785 -31.28903974 122.0145336 -33.16465759 116.38768005 C-30.19465759 115.39768005 -27.22465759 114.40768005 -24.16465759 113.38768005 C-23.39122009 115.21299255 -23.39122009 115.21299255 -22.60215759 117.07518005 C-20.3750873 121.56113593 -17.53511597 124.02499606 -13.16465759 126.38768005 C-10.44482536 127.2942908 -8.86956936 127.51498381 -6.07527828 127.52190113 C-4.82154664 127.5285879 -4.82154664 127.5285879 -3.54248708 127.53540975 C-2.62421922 127.53522539 -1.70595135 127.53504102 -0.75985718 127.53485107 C0.21570301 127.53852776 1.19126319 127.54220445 2.1963858 127.54599255 C5.48042152 127.55704606 8.76442562 127.56087609 12.04847717 127.56468201 C14.39719748 127.57094547 16.74591679 127.57759217 19.09463501 127.58459473 C26.15467079 127.60383527 33.21470302 127.61442584 40.27475849 127.62332252 C43.60126345 127.62770712 46.92776684 127.63307475 50.25427055 127.63831139 C61.31616288 127.65532501 72.37805422 127.66981767 83.43995762 127.67706013 C86.31044071 127.67896996 89.1809238 127.6808903 92.05140686 127.68284607 C92.7648348 127.68332981 93.47826273 127.68381355 94.2133097 127.68431195 C105.76209578 127.69260653 117.31077809 127.71793314 128.85951889 127.75042675 C140.72253442 127.78353173 152.58549728 127.80151209 164.44855922 127.80470437 C171.10666689 127.80686654 177.76464339 127.8160172 184.42271614 127.84116554 C190.68949044 127.86445271 196.95599294 127.86867665 203.2227993 127.85840416 C205.51972991 127.85790883 207.81667392 127.8642284 210.11356354 127.87796021 C213.25658527 127.89569513 216.39863335 127.88856438 219.54165649 127.87542725 C220.89563572 127.89188112 220.89563572 127.89188112 222.27696806 127.90866739 C229.05560267 127.84056246 236.552654 126.68781942 241.52975184 121.68426305 C245.58645718 116.17165146 245.99040459 111.60393774 246.01234436 105.00413513 C246.01891556 104.14847961 246.02548676 103.2928241 246.03225708 102.41123962 C246.05198341 99.57656262 246.06365233 96.74193862 246.07362366 93.9072113 C246.07769918 92.93804968 246.08177471 91.96888805 246.08597374 90.97035789 C246.10683345 85.83887826 246.12113458 80.70742534 246.13050842 75.57591248 C246.14156168 70.284342 246.17594947 64.99319332 246.21568012 59.70177174 C246.24187069 55.62586707 246.25020252 51.55006244 246.2537899 47.47408104 C246.25865096 45.52411239 246.27025119 43.57414807 246.2888279 41.62426186 C246.31326715 38.88857096 246.31224544 36.15396507 246.30531311 33.41819763 C246.31812317 32.61945724 246.33093323 31.82071686 246.34413147 30.99777222 C246.29240211 25.36936236 244.95776657 21.10112733 241.83534241 16.38768005 C237.87175283 12.62226996 234.13713817 10.13980942 228.59891796 10.13320446 C227.75577233 10.12737227 226.91262669 10.12154007 226.04393119 10.11553115 C225.12263885 10.11931047 224.20134652 10.12308979 223.25213623 10.12698364 C222.26952137 10.1231581 221.28690652 10.11933255 220.27451545 10.11539108 C216.97271564 10.1050493 213.67108934 10.10905551 210.36927795 10.11302185 C208.00568989 10.10867599 205.64210323 10.10349326 203.27851868 10.09753418 C196.85078876 10.08411828 190.42311754 10.08356848 183.99537635 10.08609748 C179.98109382 10.0873798 175.96682018 10.08476138 171.95253944 10.08111 C170.95309089 10.08021722 170.95309089 10.08021722 169.93345145 10.0793064 C168.5798607 10.07809465 167.22626995 10.07688051 165.87267921 10.07566402 C153.17516485 10.06478475 140.47767704 10.06695256 127.78016118 10.07304887 C116.16799614 10.07821606 104.55591505 10.06696853 92.94376662 10.04795065 C81.01857737 10.02856997 69.09342782 10.0203168 57.16822273 10.0240739 C50.47392034 10.0259859 43.77969994 10.02323414 37.08540916 10.00935936 C30.78910605 9.9967985 24.49297102 9.99870878 18.19667053 10.01177025 C15.88558712 10.0141395 13.57449194 10.01138891 11.26342201 10.00314713 C8.10858541 9.99270759 4.95431564 10.00075838 1.79949951 10.01345825 C0.88489934 10.00608397 -0.02970083 9.99870968 -0.97201616 9.99111193 C-8.64451707 10.05608753 -14.50644221 11.88663732 -20.16465759 17.38768005 C-22.81536583 21.64774687 -23.66786717 25.41977587 -24.16465759 30.38768005 C-27.13465759 30.05768005 -30.10465759 29.72768005 -33.16465759 29.38768005 C-34.15600327 22.11781175 -31.12161797 16.37593425 -27.16465759 10.38768005 C-19.46550887 2.31987964 -10.80644554 -0.07059868 0 0 Z " fill="#3E9AE9" transform="translate(551.1646575927734,102.61231994628906)"/>
<path d="M0 0 C24.84151619 17.97475561 40.82118096 43.21760828 46.60742188 73.28662109 C47.32192847 78.22507026 47.33822828 83.14292916 47.3125 88.125 C47.30903564 89.21796387 47.30557129 90.31092773 47.30200195 91.43701172 C47.15127245 102.73756048 46.07830461 113.74307858 41 124 C37.48175489 126.34549674 36.14224306 126.57991403 32 126 C29.0625 124.0625 29.0625 124.0625 27 121 C26.68252262 117.11090205 27.69696737 113.37255958 28.53125 109.59375 C33.15520951 86.47395244 30.09427177 62.45778139 17.6875 42.25 C3.13028884 20.73342034 -17.38809972 5.16042733 -43.125 -0.1875 C-63.74917901 -3.30357314 -84.96636321 -1.50960573 -103.3125 8.875 C-106.9676268 10.40505308 -109.22307562 10.06894086 -113 9 C-115.55078958 6.77834456 -115.93332671 5.39170557 -116.5 2.0625 C-115.8218506 -2.09116509 -114.14376931 -3.25079283 -111 -6 C-101.25378291 -11.71002487 -90.97101726 -14.69682933 -80 -17 C-78.82123291 -17.26369385 -78.82123291 -17.26369385 -77.61865234 -17.53271484 C-51.09597567 -22.26555124 -22.1516585 -14.74935865 0 0 Z " fill="#429DEA" transform="translate(213,56)"/>
<path d="M0 0 C17.14173491 12.2129409 28.09806682 28.88800901 32.53955078 49.44213867 C33.29394506 54.19772761 33.23250603 58.94583553 33.1953125 63.75 C33.20691406 65.27173828 33.20691406 65.27173828 33.21875 66.82421875 C33.21617187 67.80519531 33.21359375 68.78617187 33.2109375 69.796875 C33.20868164 70.67698242 33.20642578 71.55708984 33.20410156 72.46386719 C32.91119436 75.33435778 32.25376781 77.4300148 30.9453125 80 C27.43278104 82.34168764 26.08061894 82.49623677 21.9453125 82 C19.28515625 80.72265625 19.28515625 80.72265625 16.9453125 78 C16.25247301 74.02877002 16.34916429 70.08448563 16.3828125 66.0625 C16.2290922 56.64192942 15.85947874 48.69396539 11.9453125 40 C11.5225 39.05511719 11.0996875 38.11023438 10.6640625 37.13671875 C3.26559545 22.27813076 -8.65269143 12.54970709 -24.0546875 7 C-24.93640625 6.63261719 -25.818125 6.26523438 -26.7265625 5.88671875 C-31.52769337 4.60754421 -36.16772093 4.6177862 -41.1171875 4.625 C-42.14054199 4.62516113 -43.16389648 4.62532227 -44.21826172 4.62548828 C-52.15985351 4.74499584 -58.70068617 5.88081058 -66.0546875 9 C-69.99666051 10.64539581 -72.73352376 11.63016971 -77.0546875 11 C-79.9921875 8.9375 -79.9921875 8.9375 -82.0546875 6 C-82.4296875 2.5625 -82.4296875 2.5625 -81.0546875 -1 C-75.99889354 -5.77739121 -69.70954476 -8.315746 -63.0546875 -10 C-62.42892822 -10.16773926 -61.80316895 -10.33547852 -61.15844727 -10.50830078 C-40.17764602 -15.73423658 -17.96023831 -11.75913301 0 0 Z " fill="#429DEA" transform="translate(194.0546875,83)"/>
<path d="M0 0 C5.18177787 4.24039379 7.81670337 7.8222426 9.4921875 14.30078125 C9.4921875 14.96078125 9.4921875 15.62078125 9.4921875 16.30078125 C-3.16863241 17.22592912 -3.16863241 17.22592912 -6.33984375 15.03515625 C-7.45513448 13.49836768 -8.4842359 11.90011969 -9.5078125 10.30078125 C-14.00073307 8.1042423 -18.58171853 7.65312746 -23.5078125 8.30078125 C-27.5304342 9.86513413 -29.09930359 10.68801788 -31.5078125 14.30078125 C-32.17488798 17.71577716 -32.17488798 17.71577716 -31.5078125 21.30078125 C-27.39662189 25.39328463 -23.87417927 27.17719625 -18.2578125 28.86328125 C-16.92905974 29.27924998 -15.60093356 29.69722548 -14.2734375 30.1171875 C-13.03078125 30.50777344 -11.788125 30.89835937 -10.5078125 31.30078125 C-2.9333969 33.9357962 4.60853126 36.63398554 8.9296875 43.80078125 C11.63422116 49.98257247 11.60427517 57.253835 9.83203125 63.703125 C6.75394976 70.64546465 1.35751092 74.75827382 -5.5078125 77.67578125 C-14.82131371 80.72476789 -25.33991366 80.8648367 -34.2890625 76.62890625 C-40.82100986 72.71893776 -45.27510669 68.65557687 -47.5078125 61.30078125 C-47.8378125 58.99078125 -48.1678125 56.68078125 -48.5078125 54.30078125 C-43.5578125 54.30078125 -38.6078125 54.30078125 -33.5078125 54.30078125 C-32.8478125 56.61078125 -32.1878125 58.92078125 -31.5078125 61.30078125 C-27.67976883 65.3357462 -24.56890804 65.58659586 -19.0703125 65.73828125 C-13.79612817 65.5576585 -9.96374521 65.17238233 -5.5078125 62.30078125 C-3.60840374 59.37252608 -3.49085228 57.7163067 -3.6328125 54.23828125 C-4.67570275 50.7371497 -5.61265587 49.51024289 -8.5078125 47.30078125 C-12.67662974 45.12952227 -16.61673269 44.01771357 -21.1953125 42.98828125 C-30.24730679 40.80488564 -39.40624685 37.4632863 -44.5078125 29.30078125 C-47.19705017 23.66618803 -47.59529043 17.13448509 -45.890625 11.125 C-42.97419844 4.47916071 -37.45398745 -0.61905472 -30.8828125 -3.63671875 C-21.06619111 -6.74789206 -8.58215249 -5.81500986 0 0 Z " fill="#1A64AC" transform="translate(596.5078125,130.69921875)"/>
<path d="M0 0 C3.66607641 3.21347439 6.44999257 6.34997771 8 11 C8.08630926 12.45781722 8.11770981 13.91927474 8.11352539 15.37963867 C8.11344986 16.26032516 8.11337433 17.14101166 8.11329651 18.04838562 C8.10813522 18.99534805 8.10297394 19.94231049 8.09765625 20.91796875 C8.0962413 21.89034988 8.09482635 22.86273102 8.09336853 23.86457825 C8.08776817 26.97225004 8.07521562 30.07984996 8.0625 33.1875 C8.05748505 35.29361875 8.05292213 37.39973863 8.04882812 39.50585938 C8.03779862 44.67060064 8.02053375 49.83528813 8 55 C3.71 55 -0.58 55 -5 55 C-5 53.02 -5 51.04 -5 49 C-5.66 49 -6.32 49 -7 49 C-7.226875 49.598125 -7.45375 50.19625 -7.6875 50.8125 C-9.64395762 54.07326271 -12.31677426 55.36153506 -15.8125 56.6875 C-23.20558656 57.74365522 -28.58542175 56.89682466 -35 53 C-39.21724969 48.78275031 -40.84345093 44.97251831 -41.3125 39.0625 C-41.15859334 33.95472273 -39.44460832 30.53216034 -35.9375 26.8125 C-26.29589717 20.86342591 -15.92272895 21.67874327 -5 22 C-5.25662245 20.55989519 -5.53090821 19.1229313 -5.8125 17.6875 C-5.96332031 16.88699219 -6.11414063 16.08648437 -6.26953125 15.26171875 C-7.11449459 12.64549535 -7.74996712 11.57800978 -10 10 C-12.59707987 9.4494841 -12.59707987 9.4494841 -15.4375 9.5 C-16.38496094 9.4690625 -17.33242188 9.438125 -18.30859375 9.40625 C-21.2354239 9.746232 -21.2354239 9.746232 -22.89453125 12.51171875 C-25 15 -25 15 -28.453125 15.48828125 C-29.70609375 15.43027344 -30.9590625 15.37226563 -32.25 15.3125 C-33.51328125 15.26738281 -34.7765625 15.22226563 -36.078125 15.17578125 C-37.04234375 15.11777344 -38.0065625 15.05976563 -39 15 C-38.87848827 9.16743692 -37.16454526 6.02179247 -33.1484375 1.80078125 C-23.5168603 -6.27223164 -10.65106566 -5.87028199 0 0 Z " fill="#0F3769" transform="translate(533,153)"/>
<path d="M0 0 C4.74076207 3.4103173 8.2799319 6.2946451 10 12 C10.27058486 15.37298762 10.23258393 18.73138064 10.1953125 22.11328125 C10.1924826 23.08283249 10.18965271 24.05238373 10.18673706 25.05131531 C10.17556991 28.13850405 10.15047152 31.22539939 10.125 34.3125 C10.11496573 36.40950101 10.10584066 38.50650658 10.09765625 40.60351562 C10.07564188 45.7357896 10.04113571 50.8678451 10 56 C5.71 56 1.42 56 -3 56 C-3.33 54.35 -3.66 52.7 -4 51 C-4.86625 51.78375 -5.7325 52.5675 -6.625 53.375 C-11.22980468 57.17288797 -15.83180776 58.5046394 -21.8515625 58.30859375 C-26.72551004 57.60851765 -31.17145761 55.8719757 -34.64453125 52.31640625 C-38.49643073 47.15463894 -39.64783659 42.47836591 -39 36 C-37.03478998 30.87128117 -34.44950905 27.84519719 -29.4375 25.5625 C-25.15747021 23.90834637 -21.27521224 22.86946277 -16.671875 22.90234375 C-15.47304688 22.90717773 -15.47304688 22.90717773 -14.25 22.91210938 C-13.425 22.92048828 -12.6 22.92886719 -11.75 22.9375 C-10.90953125 22.94201172 -10.0690625 22.94652344 -9.203125 22.95117188 C-7.13538599 22.96292039 -5.06768376 22.98085478 -3 23 C-3.66213961 16.29343732 -3.66213961 16.29343732 -7.1875 10.875 C-10.73340102 9.77183079 -13.30377025 9.53797128 -17 10 C-19.75329021 11.79562405 -21.52627461 13.05254922 -23 16 C-27.62 16 -32.24 16 -37 16 C-35.91455994 9.48735964 -34.42093857 6.35369028 -29.75 1.8125 C-20.85728273 -4.04860911 -9.499347 -5.51387758 0 0 Z " fill="#1A64AB" transform="translate(714,152)"/>
<path d="M0 0 C1.20269531 -0.02578125 2.40539062 -0.0515625 3.64453125 -0.078125 C10.02223874 0.51253369 14.12195334 3.43553685 18.1875 8.25 C22.05968296 14.18009762 22.74222469 19.24459332 22.578125 26.21875 C22.57246521 27.13966431 22.56680542 28.06057861 22.56097412 29.00939941 C22.53875236 31.92348307 22.48858383 34.83629397 22.4375 37.75 C22.4174166 39.73696129 22.39916906 41.72394204 22.3828125 43.7109375 C22.3389343 48.55777499 22.27000689 53.40367242 22.1875 58.25 C17.5675 58.25 12.9475 58.25 8.1875 58.25 C8.1781543 57.16058105 8.16880859 56.07116211 8.15917969 54.94873047 C8.11917019 50.88923946 8.05338171 46.83049759 7.97998047 42.77148438 C7.95183416 41.01800188 7.93058815 39.26439401 7.91650391 37.51074219 C7.89498573 34.98307401 7.84829298 32.45690316 7.796875 29.9296875 C7.79564636 29.15132538 7.79441772 28.37296326 7.79315186 27.5710144 C7.65484638 22.3784842 6.6019303 19.37913372 3.1875 15.25 C0.1338433 13.35178097 -1.64000388 13.24686371 -5.25 13.3125 C-9.35278416 14.39218004 -12.22093529 15.89305576 -14.8125 19.25 C-15.67538033 22.25919543 -15.65143296 25.15423749 -15.6171875 28.26953125 C-15.63089386 29.12810226 -15.64460022 29.98667328 -15.65872192 30.8712616 C-15.69598762 33.6022091 -15.69230966 36.33133456 -15.6875 39.0625 C-15.70562929 40.91864817 -15.72643272 42.77477228 -15.75 44.63085938 C-15.80181848 49.17087776 -15.81693296 53.70970213 -15.8125 58.25 C-20.7625 58.25 -25.7125 58.25 -30.8125 58.25 C-30.8125 39.44 -30.8125 20.63 -30.8125 1.25 C-26.1925 1.25 -21.5725 1.25 -16.8125 1.25 C-16.8125 2.9 -16.8125 4.55 -16.8125 6.25 C-16.34199219 5.90066406 -15.87148438 5.55132812 -15.38671875 5.19140625 C-14.76410156 4.73636719 -14.14148438 4.28132812 -13.5 3.8125 C-12.88511719 3.36003906 -12.27023437 2.90757812 -11.63671875 2.44140625 C-7.87242572 -0.01707207 -4.38103713 0.0559877 0 0 Z " fill="#0F3668" transform="translate(381.8125,149.75)"/>
<path d="M0 0 C4.62 0 9.24 0 14 0 C14.33 1.65 14.66 3.3 15 5 C16.010625 4.175 17.02125 3.35 18.0625 2.5 C24.20880847 -1.35241835 31.01158847 -0.83362323 38 0 C44.06962624 1.8077589 48.17688698 6.63915488 51.12451172 12.07299805 C52.40462907 16.35278804 52.24544044 20.45229126 52.1953125 24.89453125 C52.1924826 25.84188644 52.18965271 26.78924164 52.18673706 27.76530457 C52.17557187 30.78116666 52.15047389 33.79672816 52.125 36.8125 C52.11496547 38.86132383 52.10584045 40.91015232 52.09765625 42.95898438 C52.07564449 47.97277148 52.04113971 52.98633483 52 58 C47.71 58 43.42 58 39 58 C38.98541748 56.94087402 38.97083496 55.88174805 38.95581055 54.79052734 C38.89762673 50.84292658 38.82039593 46.89588429 38.73754883 42.94873047 C38.70439364 41.24374488 38.67633263 39.53865202 38.65356445 37.83349609 C38.61984432 35.37551366 38.56752206 32.91850594 38.51171875 30.4609375 C38.50532883 29.70444916 38.4989389 28.94796082 38.49235535 28.16854858 C38.36183097 23.41886909 37.56968382 20.13473787 35 16 C32.11067212 13.59222677 30.30521864 13.03884601 26.5625 12.5625 C22.33996212 13.08105728 20.2759755 14.33350832 17 17 C14.42930383 20.85604425 14.64934944 24.12746343 14.5859375 28.60546875 C14.56657135 29.44467361 14.5472052 30.28387848 14.5272522 31.14851379 C14.46748787 33.82807258 14.42108388 36.5076744 14.375 39.1875 C14.3368173 41.00457599 14.29776539 42.82163394 14.2578125 44.63867188 C14.16178897 49.09230132 14.07774641 53.54601551 14 58 C9.38 58 4.76 58 0 58 C0 38.86 0 19.72 0 0 Z " fill="#1963AC" transform="translate(734,150)"/>
<path d="M0 0 C5.08304164 4.2344815 8.13723239 8.15533738 10.57421875 14.30078125 C10.57421875 14.96078125 10.57421875 15.62078125 10.57421875 16.30078125 C8.32587379 16.43604264 6.07519361 16.53288929 3.82421875 16.61328125 C2.57125 16.67128906 1.31828125 16.72929687 0.02734375 16.7890625 C-3.42578125 16.30078125 -3.42578125 16.30078125 -5.76953125 13.86328125 C-6.31609375 13.01765625 -6.86265625 12.17203125 -7.42578125 11.30078125 C-10.97961598 8.6354052 -15.15872653 8.75815001 -19.42578125 9.30078125 C-24.36398508 11.25742805 -27.41560921 13.06776938 -29.61328125 17.92578125 C-31.32136276 25.02088905 -31.117578 31.851081 -27.42578125 38.30078125 C-23.83798917 41.79887853 -21.12073459 43.14087999 -16.11328125 43.61328125 C-11.71656065 43.24067781 -9.81259411 42.07180995 -6.42578125 39.30078125 C-6.02230469 38.59953125 -5.61882813 37.89828125 -5.203125 37.17578125 C-3.42578125 35.30078125 -3.42578125 35.30078125 -0.0703125 34.91015625 C1.19425781 34.9565625 2.45882812 35.00296875 3.76171875 35.05078125 C5.67017578 35.10492188 5.67017578 35.10492188 7.6171875 35.16015625 C8.59300781 35.2065625 9.56882812 35.25296875 10.57421875 35.30078125 C9.4518609 42.67627567 5.151277 47.52874481 -0.42578125 52.30078125 C-7.78037611 56.48050013 -15.83665487 57.79457178 -24.02734375 55.60546875 C-32.93045059 52.4046539 -38.13110125 47.69025051 -42.48046875 39.3515625 C-45.7970776 32.15643999 -45.5348742 22.15807389 -43.77734375 14.4609375 C-40.58546907 6.69949864 -34.97784132 0.32732071 -27.2578125 -3.0234375 C-18.18920477 -6.36857425 -7.97083934 -5.58343818 0 0 Z " fill="#1B64AB" transform="translate(658.42578125,153.69921875)"/>
<path d="M0 0 C0 3.96 0 7.92 0 12 C-2.27864583 12.42317708 -4.55729167 12.84635417 -6.8359375 13.26953125 C-9.35820641 13.87544942 -9.35820641 13.87544942 -11 17 C-11.39387788 19.32387947 -11.73486085 21.65793749 -12 24 C-8.04 24 -4.08 24 0 24 C0 28.29 0 32.58 0 37 C-3.96 37 -7.92 37 -12 37 C-11.99214478 38.99148071 -11.99214478 38.99148071 -11.98413086 41.02319336 C-11.96608574 45.93008759 -11.95456979 50.83697887 -11.94506836 55.74389648 C-11.94002702 57.87118014 -11.93319409 59.99846031 -11.92456055 62.12573242 C-11.91248621 65.17627826 -11.90676986 68.22677845 -11.90234375 71.27734375 C-11.89718246 72.23462875 -11.89202118 73.19191376 -11.88670349 74.1782074 C-11.88659019 75.49946373 -11.88659019 75.49946373 -11.88647461 76.84741211 C-11.884254 77.62684677 -11.88203339 78.40628143 -11.87974548 79.20933533 C-12 81 -12 81 -13 82 C-15.16480797 82.0989294 -17.33293785 82.129711 -19.5 82.125 C-20.6859375 82.12757813 -21.871875 82.13015625 -23.09375 82.1328125 C-26 82 -26 82 -27 81 C-27.0927833 79.61839885 -27.11747043 78.23211962 -27.11352539 76.84741211 C-27.11344986 75.96657455 -27.11337433 75.085737 -27.11329651 74.1782074 C-27.10555458 72.74227989 -27.10555458 72.74227989 -27.09765625 71.27734375 C-27.0962413 70.30213272 -27.09482635 69.32692169 -27.09336853 68.32215881 C-27.08775133 65.19390857 -27.07519593 62.06572877 -27.0625 58.9375 C-27.05748722 56.82226666 -27.05292393 54.70703219 -27.04882812 52.59179688 C-27.03777631 47.39450704 -27.02102146 42.19725855 -27 37 C-27.71027344 37.01160156 -28.42054688 37.02320313 -29.15234375 37.03515625 C-30.07144531 37.04417969 -30.99054688 37.05320313 -31.9375 37.0625 C-32.85402344 37.07410156 -33.77054687 37.08570313 -34.71484375 37.09765625 C-37 37 -37 37 -38 36 C-38.09851171 34.16884117 -38.12972629 32.33380067 -38.125 30.5 C-38.12757813 29.4996875 -38.13015625 28.499375 -38.1328125 27.46875 C-38 25 -38 25 -37 24 C-35.31391034 23.92794489 -33.62499341 23.91613932 -31.9375 23.9375 C-31.01839844 23.94652344 -30.09929687 23.95554688 -29.15234375 23.96484375 C-28.44207031 23.97644531 -27.73179687 23.98804688 -27 24 C-27.0825 22.865625 -27.165 21.73125 -27.25 20.5625 C-27.21359103 15.41973284 -25.85196076 11.28189123 -23 7 C-15.70860953 -0.01264516 -9.83913011 -0.1057971 0 0 Z " fill="#163E6E" transform="translate(447,127)"/>
<path d="M0 0 C5.28 0 10.56 0 16 0 C16 27.06 16 54.12 16 82 C11.05 82 6.1 82 1 82 C-0.73141493 80.26858507 -0.11977579 78.04249956 -0.12442017 75.73521423 C-0.12082489 74.98139969 -0.11722961 74.22758514 -0.11352539 73.45092773 C-0.11367142 72.66074249 -0.11381744 71.87055725 -0.1139679 71.056427 C-0.11326857 68.43212178 -0.10547527 65.80788664 -0.09765625 63.18359375 C-0.09579214 61.36898335 -0.0943682 59.55437244 -0.09336853 57.73976135 C-0.08954279 52.9540977 -0.07971204 48.1684642 -0.06866455 43.3828125 C-0.05845163 38.50325936 -0.05387117 33.62370136 -0.04882812 28.74414062 C-0.03808981 19.16274501 -0.02049257 9.58137972 0 0 Z " fill="#133B6C" transform="translate(323,127)"/>
<path d="M0 0 C0 4.29 0 8.58 0 13 C-1.52625 13.226875 -3.0525 13.45375 -4.625 13.6875 C-9.81828722 14.73204219 -12.39690027 16.12666779 -16 20 C-18.1899965 24.20923949 -18.3392212 28.27443015 -18.4140625 32.92578125 C-18.43342865 33.67337204 -18.4527948 34.42096283 -18.4727478 35.19120789 C-18.53223918 37.56485806 -18.57880592 39.93855754 -18.625 42.3125 C-18.66320789 43.92775482 -18.70226125 45.54298987 -18.7421875 47.15820312 C-18.8379153 51.1053071 -18.92205767 55.05250639 -19 59 C-23.62 59 -28.24 59 -33 59 C-33 39.86 -33 20.72 -33 1 C-28.38 1 -23.76 1 -19 1 C-19 2.65 -19 4.3 -19 6 C-18.21496094 5.566875 -17.42992187 5.13375 -16.62109375 4.6875 C-6.18629174 -0.84358524 -6.18629174 -0.84358524 0 0 Z " fill="#0E386A" transform="translate(488,150)"/>
<path d="M0 0 C1.62463842 -0.05395478 3.24978541 -0.09277195 4.875 -0.125 C5.77992188 -0.14820313 6.68484375 -0.17140625 7.6171875 -0.1953125 C10 0 10 0 12 2 C12.18713986 4.42567119 12.25585278 6.73497667 12.23046875 9.16015625 C12.22978142 10.21776405 12.22978142 10.21776405 12.2290802 11.29673767 C12.22605863 12.78711632 12.2181751 14.27749184 12.20581055 15.76782227 C12.18754456 18.05691633 12.18530091 20.34560627 12.18554688 22.63476562 C12.18063206 24.08073269 12.1748039 25.52669699 12.16796875 26.97265625 C12.16685593 27.66118179 12.1657431 28.34970734 12.16459656 29.05909729 C12.11605499 33.88394501 12.11605499 33.88394501 11 35 C9.00200428 35.09873816 7.00042842 35.12971799 5 35.125 C3.906875 35.12757813 2.81375 35.13015625 1.6875 35.1328125 C-1 35 -1 35 -2 34 C-2.09927221 32.5678579 -2.13079987 31.1308897 -2.1328125 29.6953125 C-2.13482666 28.80626221 -2.13684082 27.91721191 -2.13891602 27.0012207 C-2.13432373 26.05206787 -2.12973145 25.10291504 -2.125 24.125 C-2.12234131 23.17004639 -2.11968262 22.21509277 -2.11694336 21.23120117 C-2.00107591 4.00215183 -2.00107591 4.00215183 0 0 Z " fill="#F7F8FA" transform="translate(143,147)"/>
<path d="M0 0 C1.11084961 0.02707031 1.11084961 0.02707031 2.24414062 0.0546875 C4.0591571 0.10152663 5.87350166 0.17326211 7.6875 0.25 C7.44654678 7.35812004 7.44654678 7.35812004 4.1875 11.1875 C0.45044631 13.85940312 -3.77446103 14.57178822 -8.3125 14.25 C-12.0484736 12.77805281 -12.0484736 12.77805281 -13.3125 10.25 C-13.6875 7.375 -13.6875 7.375 -13.3125 4.25 C-9.18035395 -0.244615 -5.71071955 -0.26537749 0 0 Z " fill="#F8FAFB" transform="translate(702.3125,184.75)"/>
<path d="M0 0 C0.70189453 0.00451172 1.40378906 0.00902344 2.12695312 0.01367188 C3.85550538 0.02543073 5.58401365 0.04336546 7.3125 0.0625 C6.69400628 5.32588152 6.19416747 8.28865662 2.3125 12.0625 C-1.36782136 14.0963618 -4.51739944 14.58376257 -8.6875 14.0625 C-11.5625 12.4375 -11.5625 12.4375 -13.6875 10.0625 C-14.1875 7 -14.1875 7 -13.6875 4.0625 C-10.26896158 -0.65833878 -5.30992425 -0.06445286 0 0 Z " fill="#F6F8F9" transform="translate(519.6875,184.9375)"/>
<path d="M0 0 C0.99 0.495 0.99 0.495 2 1 C2 19.15 2 37.3 2 56 C5.63 56 9.26 56 13 56 C13 45.11 13 34.22 13 23 C13.33 23 13.66 23 14 23 C14 34.55 14 46.1 14 58 C9.38 58 4.76 58 0 58 C0 38.86 0 19.72 0 0 Z " fill="#072359" transform="translate(455,151)"/>
<path d="M0 0 C0.33 0 0.66 0 1 0 C1 14.52 1 29.04 1 44 C4.63 44 8.26 44 12 44 C12 29.81 12 15.62 12 1 C12.33 1 12.66 1 13 1 C13.16784025 7.24779466 13.32780106 13.49575473 13.48217773 19.74389648 C13.53568206 21.87122205 13.59101764 23.99850236 13.64819336 26.12573242 C13.72986981 29.1761702 13.80504681 32.22670797 13.87890625 35.27734375 C13.90594131 36.23462875 13.93297638 37.19191376 13.96083069 38.1782074 C13.98092697 39.05904495 14.00102325 39.93988251 14.02172852 40.84741211 C14.04171402 41.62684677 14.06169952 42.40628143 14.08229065 43.20933533 C14 45 14 45 13 46 C8.71 46 4.42 46 0 46 C0 30.82 0 15.64 0 0 Z " fill="#071850" transform="translate(421,163)"/>
<path d="M0 0 C0.33 0 0.66 0 1 0 C1.12224626 9.0598059 0.83930594 17.97746114 0 27 C-0.33 27 -0.66 27 -1 27 C-3.11836062 5.32463156 -3.11836062 5.32463156 0 0 Z " fill="#0C2B61" transform="translate(157,153)"/>
<path d="M0 0 C4.62 0 9.24 0 14 0 C14 0.66 14 1.32 14 2 C10.04 2 6.08 2 2 2 C1.67 2.99 1.34 3.98 1 5 C0.67 3.35 0.34 1.7 0 0 Z " fill="#074FA1" transform="translate(548,185)"/>
<path d="M0 0 C3.67952474 4.90603299 3.29124516 6.17509683 3 12 C2.67 12 2.34 12 2 12 C1.67 13.98 1.34 15.96 1 18 C0.67 18 0.34 18 0 18 C0 12.06 0 6.12 0 0 Z " fill="#154071" transform="translate(136,222)"/>
<path d="M0 0 C0.33 0 0.66 0 1 0 C2.32594359 5.96674616 2.0884587 11.92583615 2 18 C-0.49560109 15.10378926 -1.38271683 13.39138057 -1.25 9.5625 C-1.22421875 8.78132812 -1.1984375 8.00015625 -1.171875 7.1953125 C-0.97939911 4.73687046 -0.61643382 2.38868105 0 0 Z " fill="#184272" transform="translate(159,224)"/>
<path d="M0 0 C2.0625 0.4375 2.0625 0.4375 4 1 C3.34 1.66 2.68 2.32 2 3 C2.79005662 4.43838552 3.58211045 5.87567415 4.375 7.3125 C5.03628906 8.51326172 5.03628906 8.51326172 5.7109375 9.73828125 C6.73513335 11.53527943 7.85267138 13.27900708 9 15 C5.3702422 13.5682192 4.09761175 11.99194181 2.3125 8.5625 C1.89613281 7.78003906 1.47976563 6.99757812 1.05078125 6.19140625 C0 4 0 4 -1 1 C-0.67 0.67 -0.34 0.34 0 0 Z " fill="#2C8FE6" transform="translate(519,218)"/>
<path d="M0 0 C1.32 0 2.64 0 4 0 C4.5625 1.9375 4.5625 1.9375 5 4 C4 5 4 5 1.49609375 5.09765625 C-0.01791016 5.08025391 -0.01791016 5.08025391 -1.5625 5.0625 C-2.57441406 5.05347656 -3.58632813 5.04445312 -4.62890625 5.03515625 C-5.41136719 5.02355469 -6.19382812 5.01195312 -7 5 C-7 4.67 -7 4.34 -7 4 C-4.36 3.67 -1.72 3.34 1 3 C0.67 2.01 0.34 1.02 0 0 Z " fill="#226CAF" transform="translate(663,163)"/>
<path d="M0 0 C0 3.3 0 6.6 0 10 C-0.99 9.67 -1.98 9.34 -3 9 C-3 6.36 -3 3.72 -3 1 C-1 0 -1 0 0 0 Z " fill="#163E70" transform="translate(495,187)"/>
<path d="M0 0 C0.625 1.875 0.625 1.875 1 4 C-1.22189824 6.22189824 -3.08482708 6.92598892 -6 8 C-4.73058503 4.08597051 -3.48832306 2.20927127 0 0 Z " fill="#1A5CA7" transform="translate(28,44)"/>
<path d="M0 0 C1.43655854 -0.08131463 2.8744483 -0.13933559 4.3125 -0.1875 C5.51326172 -0.23970703 5.51326172 -0.23970703 6.73828125 -0.29296875 C9.47851584 0.06198392 10.29171079 0.89366282 12 3 C11.01 3.33 10.02 3.66 9 4 C8.01 3.34 7.02 2.68 6 2 C4.0103005 1.60986284 2.00980131 1.26797351 0 1 C0 0.67 0 0.34 0 0 Z " fill="#174271" transform="translate(374,160)"/>
<path d="M0 0 C2.31 0 4.62 0 7 0 C7 0.99 7 1.98 7 3 C4.69 3 2.38 3 0 3 C0 2.01 0 1.02 0 0 Z " fill="#54A7EC" transform="translate(138,38)"/>
</svg>
